<?xml version="1.0" encoding="UTF-8" standalone="no"?>
<!-- Created with Inkscape (http://www.inkscape.org/) -->

<svg
   width="1200"
   height="300"
   viewBox="0 0 1200 300"
   version="1.1"
   id="svg1"
   xml:space="preserve"
   inkscape:version="1.3 (0e150ed6c4, 2023-07-21)"
   sodipodi:docname="loginBg.svg"
   inkscape:export-filename="loginBg.svg"
   inkscape:export-xdpi="96"
   inkscape:export-ydpi="96"
   xmlns:inkscape="http://www.inkscape.org/namespaces/inkscape"
   xmlns:sodipodi="http://sodipodi.sourceforge.net/DTD/sodipodi-0.dtd"
   xmlns="http://www.w3.org/2000/svg"
   xmlns:svg="http://www.w3.org/2000/svg"><sodipodi:namedview
     id="namedview1"
     pagecolor="#ffffff"
     bordercolor="#000000"
     borderopacity="0.25"
     inkscape:showpageshadow="2"
     inkscape:pageopacity="0.0"
     inkscape:pagecheckerboard="0"
     inkscape:deskcolor="#d1d1d1"
     inkscape:document-units="px"
     inkscape:zoom="0.36213173"
     inkscape:cx="941.64629"
     inkscape:cy="526.05167"
     inkscape:window-width="1920"
     inkscape:window-height="1009"
     inkscape:window-x="-8"
     inkscape:window-y="-8"
     inkscape:window-maximized="1"
     inkscape:current-layer="layer1"
     inkscape:export-bgcolor="#0a1fb100"
     showguides="false"><sodipodi:guide
       position="729.01648,1343.8382"
       orientation="0,-1"
       id="guide1"
       inkscape:locked="false" /></sodipodi:namedview><defs
     id="defs1" /><g
     inkscape:label="Layer 1"
     inkscape:groupmode="layer"
     id="layer1"><path
       style="fill:#ffffff;fill-opacity:1;stroke-width:2.86839"
       d="m 1062.099,226.64633 c -18.1652,-9.40837 -35.8639,-30.16747 -40.7815,-47.83359 -5.1191,-18.38949 -1.5514,-42.17005 8.6908,-57.92855 11.7004,-18.00215 19.158,-24.610808 36.1455,-32.029768 27.6323,-12.06813 64.8028,-5.18186 86.1784,15.965148 23.5398,23.28805 29.4472,61.71242 13.5672,88.24395 -11.8204,19.74901 -11.2625,19.12511 -26.9119,30.07968 -12.7716,8.9398 -16.1447,9.908 -37.5278,10.7716 -21.3046,0.86018 -24.9742,0.18241 -39.3607,-7.26847 z M 810.93952,213.63451 c -10.00291,-4.53203 -28.86758,-23.23361 -28.86758,-28.61783 0,-2.44316 -1.29904,-5.23489 -2.88677,-6.20394 -1.58772,-0.96877 -2.88676,-9.94676 -2.88676,-19.95109 0,-10.00404 1.29904,-18.98203 2.88676,-19.95109 1.58773,-0.96876 2.88677,-3.71005 2.88677,-6.09192 0,-7.75356 22.86976,-27.17224 37.05414,-31.4623 15.32955,-4.636628 35.47248,-2.924818 46.66185,3.96543 15.77411,9.71333 28.47152,26.18523 30.50496,39.57298 4.7005,30.9487 -5.723,53.45268 -30.56241,65.98224 -14.16303,7.1442 -42.01474,8.54591 -54.79096,2.75752 z m -257.6432,-20.78019 c -5.95392,-3.84942 -10.82532,-8.7973 -10.82532,-10.99533 0,-2.19804 -1.62382,-4.53061 -3.60847,-5.18387 -4.38927,-1.44446 -5.02061,-32.70239 -0.72168,-35.73068 1.5877,-1.11869 4.25277,-4.48216 5.92219,-7.47454 4.20454,-7.5358 21.03466,-15.9355 31.92955,-15.9355 24.32528,0 44.42087,18.69616 44.42087,41.32725 0,32.87512 -38.60518,52.42747 -67.11714,33.99267 z M 297.61634,177.84597 c -19.53121,-17.21637 -5.57587,-46.0608 22.28482,-46.0608 5.88252,0 11.73552,2.88094 17.85793,8.78988 8.06195,7.78093 8.92646,10.12148 7.53143,20.39058 -3.25061,23.92763 -29.23983,33.12993 -47.67418,16.88034 z M 41.735126,172.42924 c -9.056597,-9.6435 -9.325851,-17.87674 -0.838516,-25.64141 12.518624,-11.45307 30.24528,-8.84119 36.573738,5.3885 3.02259,6.79619 3.211948,9.50498 0.721689,10.32469 -1.856789,0.61107 -3.376011,3.36347 -3.376011,6.11643 0,5.30357 -10.994789,11.62037 -20.226299,11.62037 -3.036471,0 -8.821032,-3.51396 -12.854601,-7.80858 z"
       id="path2" /></g></svg>
