<?xml version="1.0" encoding="UTF-8" standalone="no"?>
<!-- Created with Inkscape (http://www.inkscape.org/) -->

<svg
   width="1200"
   height="960"
   viewBox="0 0 1200 960"
   version="1.1"
   id="svg1"
   xml:space="preserve"
   inkscape:version="1.3 (0e150ed6c4, 2023-07-21)"
   sodipodi:docname="loginBg.svg"
   inkscape:export-filename="loginBg.png"
   inkscape:export-xdpi="96"
   inkscape:export-ydpi="96"
   xmlns:inkscape="http://www.inkscape.org/namespaces/inkscape"
   xmlns:sodipodi="http://sodipodi.sourceforge.net/DTD/sodipodi-0.dtd"
   xmlns="http://www.w3.org/2000/svg"
   xmlns:svg="http://www.w3.org/2000/svg"><sodipodi:namedview
     id="namedview1"
     pagecolor="#ffffff"
     bordercolor="#000000"
     borderopacity="0.25"
     inkscape:showpageshadow="2"
     inkscape:pageopacity="0.0"
     inkscape:pagecheckerboard="0"
     inkscape:deskcolor="#d1d1d1"
     inkscape:document-units="px"
     inkscape:zoom="0.36213173"
     inkscape:cx="941.64629"
     inkscape:cy="526.05167"
     inkscape:window-width="1920"
     inkscape:window-height="1009"
     inkscape:window-x="-8"
     inkscape:window-y="-8"
     inkscape:window-maximized="1"
     inkscape:current-layer="layer1"
     inkscape:export-bgcolor="#0a1fb100"
     showguides="false"><sodipodi:guide
       position="729.01648,1343.8382"
       orientation="0,-1"
       id="guide1"
       inkscape:locked="false" /></sodipodi:namedview><defs
     id="defs1" /><g
     inkscape:label="Layer 1"
     inkscape:groupmode="layer"
     id="layer1"><path
       style="fill:#ffffff;fill-opacity:1;stroke-width:14.0819"
       d="m 1088.9001,862.377 c -3.2426,-11.76942 -9.6573,-18.96109 -22.7548,-25.5103 -10.0323,-5.01562 -18.2407,-12.58954 -18.2407,-16.8321 0,-13.08119 -19.7549,-41.09434 -34.4321,-48.8262 -35.29248,-18.59017 -76.71571,2.06373 -88.49311,44.12606 -3.83302,13.6898 -6.48452,17.61521 -7.82985,11.59479 -5.16895,-23.12976 14.13259,-54.06922 40.81411,-65.42523 9.15775,-3.89846 16.65005,-9.17993 16.65005,-11.73822 0,-6.97836 -37.82364,-40.408 -51.87758,-45.85001 -13.54674,-5.24737 -56.93632,-6.26213 -73.5564,-1.72116 -9.11683,2.49141 -10.21315,5.39369 -7.78806,20.61538 3.44217,21.60615 -5.79395,18.62585 -10.09028,-3.25609 -3.16489,-16.11996 -19.01899,-33.79913 -36.57013,-40.78029 -18.11068,-7.20309 -35.1746,-5.26874 -53.10955,6.02332 -18.58717,11.70123 -29.99197,7.74584 -12.39889,-4.29948 10.49866,-7.18865 10.66359,-8.14661 2.9073,-16.87591 -10.27775,-11.56919 -41.99646,-12.41627 -52.80041,-1.40716 -4.23587,4.31503 -10.13305,17.68063 -13.10463,29.70157 -5.90332,23.88156 -16.9823,31.2594 -33.45458,22.2798 -8.68868,-4.73704 -9.95672,-10.28579 -9.95672,-43.57751 0,-45.11376 8.45929,-44.22833 10.72543,1.12265 1.14972,23.0162 3.33324,30.1722 9.57295,31.38035 5.52553,1.06596 9.86566,-3.93413 13.71498,-15.81588 10.43596,-32.21009 22.52626,-42.89099 48.5535,-42.89099 18.16501,0 25.61234,2.5895 34.18688,11.88748 6.87231,7.45171 14.46073,10.95501 20.33799,9.38899 16.61241,-4.42446 43.48395,3.72931 59.67874,18.10832 11.72501,10.41212 18.2844,12.99457 25.54753,10.05976 18.30819,-7.39908 67.60017,-4.804 87.99204,4.6334 18.87058,8.73219 51.26245,40.71624 51.26245,50.61681 0,2.64222 3.65424,4.80387 8.12084,4.80387 15.64,0 49.1787,24.41607 57.2041,41.64459 4.3809,9.40296 7.9662,19.3392 7.9662,22.07935 0,2.74029 6.6714,7.35221 14.8252,10.24744 16.0811,5.71053 33.6842,37.87536 25.3633,46.35043 -2.6797,2.73013 -6.2486,-1.98991 -8.9658,-11.85348 z M 100,868.13751 c 0,-12.51149 15.34062,-33.67268 28.40595,-39.18579 10.15215,-4.28383 15.82289,-11.4839 19.86313,-25.22034 6.76718,-23.00903 28.79677,-43.24779 51.87341,-47.65793 10.11522,-1.93305 17.9214,-6.8363 19.63437,-12.33376 3.88246,-12.46041 34.663,-39.29525 55.00461,-47.9522 19.05569,-8.11108 69.75803,-9.7285 82.22183,-2.62357 6.37378,3.63417 13.46669,0.78155 29.96056,-12.04107 17.17548,-13.35567 26.1369,-16.80235 43.67371,-16.80235 14.66557,0 26.22998,-3.33837 34.48742,-9.95435 17.66309,-14.15309 51.40512,-13.55743 64.85149,1.15114 5.58336,6.10449 11.3496,16.74256 12.81371,23.64135 4.80524,22.63953 6.31928,24.98452 16.12757,24.98452 8.57805,0 9.86981,-3.89287 11.147,-33.59587 1.83898,-42.76029 11.21712,-40.34407 11.21712,2.89075 0,25.661 -1.79589,32.84552 -9.67779,38.71693 -17.9352,13.35833 -26.78527,5.71054 -41.63999,-35.98514 -7.70661,-21.63027 -24.8288,-28.81337 -46.59956,-19.54679 -19.18646,8.16531 -20.14747,10.73635 -8.79276,23.51771 10.52873,11.85046 4.44172,18.15684 -7.18253,7.44031 -10.93949,-10.08379 -35.57064,-15.51729 -51.67885,-11.3986 -19.92268,5.09254 -41.47538,27.03819 -44.91903,45.73644 -4.39703,23.87456 -13.05598,27.71465 -11.12941,4.93616 1.01842,-12.04521 -0.90976,-19.80392 -5.68605,-22.88116 -11.16531,-7.19145 -60.25135,-5.64666 -79.38929,2.49862 -16.21043,6.89901 -47.54779,34.32521 -47.54779,41.61339 0,1.84625 9.3888,8.43089 20.86399,14.63198 11.47513,6.20108 23.83636,16.12288 27.46912,22.04951 9.46212,15.43346 15.17388,38.24919 10.33796,41.29333 -2.27082,1.42983 -5.47681,-3.65386 -7.12478,-11.2961 -3.42907,-15.90251 -19.71623,-36.70139 -35.34509,-45.1352 -5.87,-3.16801 -19.51963,-5.7603 -30.33266,-5.7603 -16.12291,0 -23.21306,3.44358 -39.41002,19.13873 -13.34966,12.93642 -19.75016,23.39832 -19.75016,32.28558 0,10.37654 -3.68635,14.71585 -17.49369,20.59125 -11.49161,4.89186 -19.40263,12.59815 -23.05854,22.46448 C 107.79104,872.93278 100,878.71598 100,868.14321 Z m 702.37835,-7.57101 c -2.01547,-2.08652 -3.66471,-8.84902 -3.66471,-15.02719 0,-25.67241 -43.9595,-57.22727 -68.61867,-49.25548 -7.4678,2.41473 -13.88379,-0.71058 -24.3542,-11.87317 -26.46454,-28.20944 -63.59351,-39.82536 -97.53766,-30.51463 l -19.64151,5.38801 7.45299,14.6803 c 4.099,8.0743 6.85839,16.38436 6.13236,18.46641 -0.72702,2.08091 5.27549,4.43585 13.3377,5.23036 32.82159,3.23632 51.96366,20.07536 50.9607,44.82803 -0.29155,7.19459 -0.84553,7.32249 -3.66462,0.83854 -11.05719,-25.41357 -30.36502,-39.65028 -53.77432,-39.65028 -11.70091,0 -15.08181,-2.60391 -17.77129,-13.6869 -7.89141,-32.5213 -48.04974,-55.60838 -80.32753,-46.17837 -19.18976,5.60702 -38.87911,27.01404 -42.94065,46.68872 -1.97471,9.56786 -7.27522,15.74188 -16.24786,18.92843 -7.32412,2.60079 -17.39865,12.44881 -22.38739,21.88597 -4.98881,9.43582 -10.76951,17.15607 -12.84557,17.15607 -11.91956,0 5.11391,-29.12593 24.79053,-42.39069 12.02346,-8.10404 20.17416,-17.96189 21.83127,-26.40141 3.02009,-15.38101 15.59894,-31.54782 31.02049,-39.86795 18.05636,-9.74126 52.70786,-8.41247 71.25164,2.73303 13.01152,7.81984 18.95018,8.92291 26.09883,4.84802 5.08996,-2.90216 22.55602,-5.14787 38.81403,-4.99292 32.70663,0.31268 60.32458,11.83627 80.10113,33.41814 8.89553,9.70884 16.66085,12.92792 31.1829,12.92792 35.54394,0 69.64444,32.57253 65.98069,63.02332 -0.83295,6.92416 -3.16373,10.88122 -5.17928,8.79337 z m 141.2901,-5.45487 c -6.18762,-6.30202 -3.23099,-37.49749 4.87896,-51.48276 8.60138,-14.83221 25.09553,-24.83372 40.95479,-24.83372 5.2475,0 9.5414,2.24001 9.5414,4.9774 0,2.73724 -4.4747,4.97715 -9.9435,4.97715 -24.6502,0 -47.16101,31.92302 -40.77808,57.82717 2.93259,11.90311 1.40439,14.70578 -4.65357,8.53476 z M 163.51942,830.80928 c 0,-18.91839 12.97221,-40.91535 29.1567,-49.44163 16.4632,-8.67106 29.47664,-9.80823 29.47664,-2.5725 0,2.7374 -4.56669,4.9774 -10.14816,4.9774 -15.71596,0 -38.71311,26.38285 -38.71311,44.41158 0,8.42254 -2.19854,15.31427 -4.88608,15.31427 -2.6874,0 -4.88599,-5.71075 -4.88599,-12.68912 z m 317.70599,-33.05593 c 0.18964,-20.14633 33.33112,-48.61424 49.49194,-42.5129 4.60652,1.73828 3.64868,3.54611 -3.18259,6.00624 -24.29777,8.75076 -32.57742,15.49191 -35.15579,28.62284 -3.46759,17.66218 -11.29852,23.19664 -11.15356,7.88382 z m -97.44524,-66.93442 c -0.40053,-16.19678 15.55546,-41.92742 21.96552,-35.42225 2.00647,2.03674 0.28319,7.63661 -3.82795,12.44318 -4.11172,4.80667 -9.78809,15.45914 -12.61395,23.67251 l -5.13794,14.93061 z m 33.81699,-36.63601 c 0,-2.73738 3.29808,-4.97728 7.32919,-4.97728 4.03095,0 7.32911,2.2399 7.32911,4.97728 0,2.73726 -3.29816,4.97726 -7.32911,4.97726 -4.03111,0 -7.32919,-2.24 -7.32919,-4.97726 z m 149.02635,-89.54548 c -6.59546,-2.91634 3.596,-4.43428 31.35244,-4.67174 22.61871,-0.19889 39.5926,1.20805 37.71957,3.11972 -5.1767,5.27286 -57.97326,6.45956 -69.07201,1.55202 z M 893.64394,589.2722 c 0,-5.86415 3.3759,-9.56374 8.72516,-9.56374 5.12139,0 8.72517,3.674 8.72517,8.89432 0,4.97157 -3.849,9.19134 -8.72517,9.56518 -5.57725,0.42615 -8.72516,-2.78144 -8.72516,-8.89576 z M 456.7132,588.41932 c 0.14101,-32.30388 30.89386,-80.8999 60.14132,-95.03708 l 16.61579,-8.03172 2.61468,-53.60864 c 2.83718,-58.17247 14.11265,-98.00207 37.34834,-131.92778 23.03535,-33.63423 39.88471,-28.60585 62.31723,18.59308 17.94196,37.75305 26.1521,76.58499 26.1521,123.69429 v 42.62233 l 21.41025,12.78147 c 24.04372,14.3534 44.98747,42.02826 52.34382,69.16718 6.88569,25.40252 2.02048,30.44509 -17.85304,18.50059 -16.51215,-9.92457 -48.02504,-18.49334 -59.56548,-16.19652 -4.70069,0.93794 -6.12005,-19.19017 -6.16054,-87.34829 -0.041,-60.48338 -2.1696,-95.66405 -6.72895,-110.95977 -9.45378,-31.71685 -26.53062,-67.31676 -36.85755,-76.83778 -8.23994,-7.59525 -9.76769,-6.99549 -23.89189,9.39167 -27.04676,31.37871 -35.83923,72.69349 -35.53761,166.98874 0.14382,45.1681 -0.94033,86.04363 -2.41078,90.83467 -1.80621,5.88415 -7.7176,8.72515 -18.22379,8.7579 -8.55291,0 -27.31257,5.62669 -41.68791,12.44308 -30.3227,14.37891 -30.06166,14.32492 -30.02599,6.17258 z m 29.28937,-18.86452 c 0,-2.20992 11.41611,-5.86825 25.3687,-8.13084 l 25.36819,-4.11312 1.90051,-28.61737 c 1.72408,-25.96375 0.99189,-28.61851 -7.89226,-28.61851 -18.53716,0 -52.43001,37.49435 -61.49003,68.02318 -2.68618,9.05193 -1.59725,10.35958 6.772,8.12962 5.48511,-1.46114 9.97289,-4.46423 9.97289,-6.67296 z m 237.21039,-8.50904 c -4.31053,-18.04998 -26.76712,-46.24801 -45.94857,-57.69637 l -15.36173,-9.16852 v 32.80997 c 0,32.42049 0.16038,32.81278 13.43679,33.03445 7.39018,0.1421 20.03305,3.30173 28.09517,7.06235 21.18121,9.8792 23.41717,9.19536 19.77834,-6.04188 z M 551.9652,584.6871 c -1.93662,-3.19218 14.60748,-4.97718 46.1298,-4.97718 29.50887,0 49.14934,1.98824 49.14934,4.97718 0,2.9662 -18.63399,4.97726 -46.12963,4.97726 -25.48261,0 -47.48129,-2.22838 -49.14951,-4.97726 z M 295.4445,539.06298 c 0,-5.01839 3.29812,-9.12436 7.32921,-9.12436 4.03087,0 7.32911,4.10597 7.32911,9.12436 0,5.01866 -3.29824,9.1246 -7.32911,9.1246 -4.03109,0 -7.32921,-4.10594 -7.32921,-9.1246 z M 578.56538,441.1236 c -7.82904,-6.45687 -10.08879,-11.93876 -7.62196,-18.48651 3.21732,-8.54036 4.00014,-8.30001 9.48824,2.91377 10.79236,22.04939 37.49597,16.58325 37.49597,-7.67642 0,-12.139 -8.27021,-17.34379 -27.56137,-17.34379 -6.82527,0 -10.78713,-2.17023 -9.08438,-4.97716 4.69197,-7.73308 30.19414,-5.85987 38.73972,2.84404 10.36738,10.56148 9.70523,33.56313 -1.25703,43.6684 -11.69787,10.78317 -26.40116,10.43918 -40.19898,-0.93809 z m 210.70299,-20.06125 c -4.1602,-7.91934 -3.12866,-9.33197 6.80765,-9.33197 8.43832,0 11.51774,2.6067 11.02055,9.33197 -0.37956,5.13222 -3.44295,9.33219 -6.80764,9.33219 -3.3646,0 -8.32386,-4.19997 -11.02056,-9.33219 z m -382.66494,-78.7111 c -12.17307,-3.24058 -11.13591,-21.45543 1.22091,-21.45543 7.16612,0 9.77216,3.31859 9.77216,12.44308 0,6.84345 -0.54971,12.18316 -1.22076,11.86487 -0.67129,-0.31267 -5.06934,-1.60188 -9.77231,-2.85252 z M 180.62057,301.73572 c -13.61384,-4.50964 -14.14455,-20.6581 -0.67805,-20.65386 7.70041,0 10.63635,3.27745 11.1555,12.44319 0.38798,6.84208 0.38798,12.2158 0,11.9429 -0.3878,-0.27009 -5.10208,-1.95272 -10.4769,-3.73223 z m 756.68071,-18.18659 c 0.49235,-8.27451 3.50684,-11.04744 11.50152,-10.57568 15.15507,0.89547 13.69448,21.79239 -1.52292,21.79239 -7.98429,0 -10.47866,-2.80423 -9.9786,-11.21671 z M 314.59456,139.71242 c 4.36805,-5.36128 4.22338,-7.58041 -0.62382,-9.56146 -3.47124,-1.41847 0.36287,-2.7564 8.52125,-2.97254 11.70421,-0.30985 14.83301,1.70674 14.83301,9.56135 0,7.6724 -3.25749,9.95438 -14.20965,9.95438 -11.6389,0 -13.18053,-1.26346 -8.52117,-6.98173 z M 765.9006,126.16331 c 0.43518,-5.89736 4.41783,-9.33218 10.81846,-9.33218 6.64588,0 10.12851,3.20878 10.12851,9.33218 0,6.31493 -3.4979,9.33218 -10.81862,9.33218 -7.56624,0 -10.61105,-2.8056 -10.12835,-9.33218 z M 564.18398,83.923858 c 0,-8.26317 2.3828,-10.043836 11.16476,-8.33377 15.29652,2.97873 15.29966,20.38592 0,19.49353 -7.90062,-0.46042 -11.16578,-3.72371 -11.16826,-11.15976 z"
       id="path1" /></g></svg>
